<svg aria-hidden="true" style="position: absolute; width: 0; height: 0; overflow: hidden;" version="1.1" xmlns="http://www.w3.org/2000/svg" xmlns:xlink="http://www.w3.org/1999/xlink">
<defs>
<symbol id="icon-arrow" viewBox="0 0 48 32">
<path d="M47.707 15.293l-15-15c-0.391-0.391-1.024-0.391-1.414 0s-0.391 1.023 0 1.414l13.293 13.293h-43.586c-0.553 0-1 0.447-1 1s0.447 1 1 1h43.586l-13.293 13.293c-0.391 0.391-0.391 1.024 0 1.414 0.195 0.195 0.451 0.293 0.707 0.293s0.512-0.098 0.707-0.293l15-15c0.391-0.391 0.391-1.023 0-1.414z"></path>
</symbol>
<symbol id="icon-burger-menu" viewBox="0 0 48 32">
<path d="M1.5 31h45v-5h-45v5zM1.5 18.5h45v-5h-45v5zM1.5 1v5h45v-5h-45z"></path>
</symbol>
<symbol id="icon-close" viewBox="0 0 32 32">
<path d="M31.556 3.578l-3.133-3.133-12.422 12.422-12.422-12.422-3.133 3.133 12.422 12.422-12.422 12.422 3.133 3.133 12.422-12.422 12.422 12.422 3.133-3.133-12.422-12.422 12.422-12.422z"></path>
</symbol>
<symbol id="icon-heart" viewBox="0 0 34 32">
<path d="M17.143 31.235c-0.488 0-0.959-0.177-1.325-0.498-1.385-1.211-2.72-2.349-3.899-3.353l-0.006-0.005c-3.454-2.944-6.437-5.486-8.512-7.99-2.32-2.799-3.401-5.454-3.401-8.353 0-2.817 0.966-5.416 2.72-7.319 1.775-1.925 4.21-2.985 6.858-2.985 1.979 0 3.792 0.626 5.387 1.86 0.805 0.623 1.535 1.385 2.178 2.274 0.643-0.889 1.373-1.651 2.178-2.274 1.595-1.234 3.408-1.86 5.387-1.86 2.648 0 5.083 1.060 6.858 2.985 1.754 1.902 2.72 4.502 2.72 7.319 0 2.9-1.080 5.554-3.4 8.353-2.075 2.504-5.058 5.046-8.512 7.989-1.18 1.006-2.518 2.145-3.906 3.36-0.366 0.321-0.837 0.497-1.325 0.497zM9.578 2.741c-2.080 0-3.991 0.83-5.382 2.338-1.411 1.53-2.188 3.646-2.188 5.957 0 2.439 0.906 4.62 2.939 7.072 1.964 2.37 4.886 4.86 8.268 7.743l0.006 0.005c1.183 1.008 2.523 2.15 3.919 3.37 1.404-1.222 2.746-2.367 3.931-3.376 3.383-2.883 6.304-5.372 8.268-7.742 2.032-2.452 2.938-4.633 2.938-7.072 0-2.311-0.777-4.427-2.188-5.957-1.39-1.508-3.301-2.338-5.381-2.338-1.524 0-2.923 0.484-4.159 1.44-1.101 0.852-1.868 1.928-2.318 2.682-0.231 0.387-0.638 0.619-1.089 0.619s-0.858-0.231-1.089-0.619c-0.45-0.753-1.216-1.83-2.318-2.682-1.235-0.955-2.635-1.44-4.158-1.44z"></path>
</symbol>
<symbol id="icon-full-heart" viewBox="0 0 34 32">
<path d="M17.143 31.771l-2.4-2.4c-8.914-7.886-14.743-13.2-14.743-19.714 0-5.314 4.114-9.429 9.429-9.429 2.914 0 5.829 1.371 7.714 3.6 1.886-2.229 4.8-3.6 7.714-3.6 5.314 0 9.429 4.114 9.429 9.429 0 6.514-5.829 11.829-14.743 19.714l-2.4 2.4z"></path>
</symbol>
<symbol id="icon-logo" viewBox="0 0 147 32">
<path fill="none" stroke="#121d2e" style="stroke: var(--color1, #121d2e)" stroke-linejoin="miter" stroke-linecap="butt" stroke-miterlimit="4" stroke-width="1.1429" d="M147.429 0h-147.429v32h147.429v-32z"></path>
<path fill="#121d2e" style="fill: var(--color1, #121d2e)" d="M69.613 25.486h5.265v-2.373h-2.234v-13.445h2.234v-2.37h-5.265v18.187zM80.551 21.714h3.147v-11.035h4.352v-2.565h-11.851v2.565h4.352v11.035zM99.28 16.527c0.022-1.001-0.222-1.991-0.709-2.866-0.457-0.804-1.135-1.46-1.953-1.889-0.874-0.439-1.838-0.666-2.816-0.66s-1.94 0.242-2.809 0.69c-0.831 0.441-1.523 1.103-2.001 1.913-0.49 0.839-0.742 1.796-0.729 2.768-0.016 0.977 0.24 1.939 0.738 2.778 0.502 0.825 1.23 1.489 2.098 1.913 0.974 0.474 2.046 0.709 3.128 0.686 0.799 0.055 1.6-0.069 2.346-0.361s1.418-0.746 1.967-1.329l-1.613-1.749c-0.336 0.333-0.736 0.594-1.175 0.768-0.464 0.169-0.954 0.251-1.448 0.242-0.703 0.025-1.397-0.172-1.982-0.563-0.522-0.362-0.884-0.912-1.010-1.535h7.907c0.039-0.505 0.058-0.777 0.058-0.816l0.001 0.010zM93.859 13.399c0.625-0.019 1.234 0.192 1.714 0.592 0.471 0.404 0.776 0.968 0.855 1.584h-5.153c0.074-0.62 0.38-1.189 0.855-1.593 0.488-0.396 1.101-0.603 1.729-0.583zM105.402 21.87c0.902 0.019 1.8-0.122 2.651-0.418 0.666-0.223 1.255-0.631 1.699-1.175 0.385-0.494 0.59-1.103 0.583-1.729 0.039-0.651-0.177-1.292-0.602-1.787-0.385-0.417-0.875-0.722-1.418-0.883-0.69-0.194-1.39-0.347-2.098-0.457-0.567-0.071-1.126-0.195-1.671-0.369-0.152-0.038-0.287-0.127-0.382-0.251s-0.146-0.278-0.143-0.434c0.007-0.15 0.056-0.296 0.142-0.42s0.205-0.221 0.344-0.28c0.456-0.209 0.956-0.302 1.457-0.272 1.055-0.009 2.093 0.259 3.011 0.777l1.010-2.157c-0.567-0.317-1.18-0.543-1.817-0.67-0.724-0.161-1.464-0.243-2.206-0.243-0.883-0.019-1.763 0.126-2.593 0.427-0.659 0.232-1.238 0.646-1.671 1.194-0.38 0.507-0.581 1.125-0.571 1.759-0.044 0.666 0.175 1.323 0.611 1.829 0.395 0.42 0.894 0.728 1.447 0.894 0.695 0.198 1.402 0.347 2.118 0.447 0.548 0.053 1.088 0.164 1.613 0.33 0.146 0.033 0.277 0.114 0.372 0.23s0.149 0.261 0.152 0.411c0 0.635-0.641 0.952-1.923 0.952-0.657-0.003-1.311-0.098-1.943-0.281-0.596-0.16-1.165-0.405-1.69-0.729l-1.010 2.171c0.612 0.377 1.282 0.652 1.983 0.815 0.831 0.214 1.687 0.322 2.545 0.321v-0.001zM118.711 19.072c-0.352 0.264-0.784 0.401-1.224 0.389-0.177 0.011-0.353-0.015-0.52-0.077-0.166-0.062-0.317-0.158-0.442-0.282-0.243-0.282-0.366-0.649-0.343-1.021v-4.253h2.603v-2.331h-2.602v-2.547h-3.031v2.545h-1.609v2.334h1.613v4.294c-0.036 0.511 0.035 1.023 0.21 1.504s0.45 0.92 0.806 1.288c0.803 0.678 1.837 1.019 2.886 0.952 0.462 0.002 0.923-0.054 1.371-0.166 0.394-0.092 0.768-0.26 1.098-0.495l-0.816-2.134zM120.944 23.463h9.714v-1.749h-9.714v1.749zM137.417 25.486v-18.187h-5.246v2.37h2.215v13.445h-2.215v2.373h5.246z"></path>
<path fill="#121d2e" style="fill: var(--color1, #121d2e)" d="M0 0h52.893l8.816 16.64-8.816 15.36h-52.893v-32z"></path>
<path fill="#fff" style="fill: var(--color2, #fff)" d="M18.357 8.114h-5.887v13.6h3.147v-3.75h2.743c1.076 0.026 2.145-0.176 3.138-0.592 0.837-0.356 1.549-0.953 2.045-1.715 0.49-0.782 0.74-1.69 0.719-2.613 0.023-0.924-0.227-1.835-0.719-2.618-0.501-0.759-1.214-1.355-2.049-1.714-0.991-0.42-2.061-0.624-3.137-0.598zM18.182 15.4h-2.565v-4.721h2.565c0.77-0.054 1.534 0.162 2.161 0.613 0.25 0.217 0.446 0.488 0.574 0.793s0.184 0.635 0.164 0.965c0.019 0.327-0.038 0.654-0.166 0.956s-0.324 0.57-0.572 0.783c-0.626 0.449-1.388 0.665-2.157 0.611h-0.005zM29.761 12.641v-1.379h-2.895v10.453h3.031v-4.935c-0.030-0.395 0.019-0.792 0.146-1.168s0.328-0.722 0.592-1.017c0.274-0.252 0.596-0.446 0.946-0.572s0.722-0.179 1.094-0.158c0.117 0 0.343 0.013 0.68 0.039v-2.798c-0.728-0.014-1.451 0.118-2.127 0.389-0.586 0.236-1.094 0.632-1.466 1.143l-0.001 0.003zM40.618 21.87c1.026 0.019 2.041-0.217 2.953-0.686 0.844-0.437 1.55-1.099 2.040-1.913 0.499-0.84 0.754-1.802 0.738-2.778 0.017-0.976-0.237-1.938-0.735-2.778-0.49-0.814-1.196-1.476-2.040-1.913-0.92-0.454-1.932-0.69-2.958-0.69s-2.038 0.236-2.958 0.69c-0.848 0.435-1.558 1.097-2.050 1.913-0.499 0.84-0.754 1.802-0.738 2.778-0.016 0.977 0.24 1.939 0.738 2.778 0.492 0.816 1.202 1.478 2.050 1.913 0.916 0.468 1.934 0.704 2.962 0.686h-0.003zM40.618 19.383c-0.358 0.011-0.714-0.054-1.045-0.189s-0.63-0.339-0.878-0.598c-0.259-0.284-0.46-0.616-0.59-0.978s-0.187-0.746-0.168-1.13c-0.019-0.384 0.038-0.768 0.168-1.13s0.33-0.694 0.59-0.978c0.248-0.258 0.547-0.462 0.878-0.598s0.687-0.2 1.045-0.189c0.357-0.012 0.711 0.052 1.041 0.188s0.628 0.339 0.873 0.598c0.518 0.577 0.786 1.335 0.747 2.109 0.039 0.774-0.23 1.532-0.747 2.109-0.245 0.259-0.543 0.463-0.873 0.599s-0.685 0.2-1.042 0.188v-0.002z"></path>
</symbol>
<symbol id="icon-sign-out" viewBox="0 0 32 32">
<path d="M25.293 9.293l-1.414 1.414 4.293 4.293h-14.172v2h14.172l-4.293 4.293 1.414 1.414 6.707-6.707-6.707-6.707z"></path>
<path d="M22 30h-20v-28h20v2h2v-3c0-0.553-0.447-1-1-1h-22c-0.553 0-1 0.447-1 1v30c0 0.553 0.447 1 1 1h22c0.553 0 1-0.447 1-1v-3h-2v2z"></path>
</symbol>
<symbol id="icon-eye" viewBox="0 0 32 32">
<path d="M16 6c-6.979 0-13.028 4.064-16 10 2.972 5.936 9.021 10 16 10s13.027-4.064 16-10c-2.972-5.936-9.021-10-16-10zM23.889 11.303c1.88 1.199 3.473 2.805 4.67 4.697-1.197 1.891-2.79 3.498-4.67 4.697-2.362 1.507-5.090 2.303-7.889 2.303s-5.527-0.796-7.889-2.303c-1.88-1.199-3.473-2.805-4.67-4.697 1.197-1.891 2.79-3.498 4.67-4.697 0.122-0.078 0.246-0.154 0.371-0.228-0.311 0.854-0.482 1.776-0.482 2.737 0 4.418 3.582 8 8 8s8-3.582 8-8c0-0.962-0.17-1.883-0.482-2.737 0.124 0.074 0.248 0.15 0.371 0.228v0zM16 13c0 1.657-1.343 3-3 3s-3-1.343-3-3 1.343-3 3-3 3 1.343 3 3z"></path>
</symbol>
<symbol id="icon-eye-blocked" viewBox="0 0 32 32">
<path d="M29.561 0.439c-0.586-0.586-1.535-0.586-2.121 0l-6.318 6.318c-1.623-0.492-3.342-0.757-5.122-0.757-6.979 0-13.028 4.064-16 10 1.285 2.566 3.145 4.782 5.407 6.472l-4.968 4.968c-0.586 0.586-0.586 1.535 0 2.121 0.293 0.293 0.677 0.439 1.061 0.439s0.768-0.146 1.061-0.439l27-27c0.586-0.586 0.586-1.536 0-2.121zM13 10c1.32 0 2.44 0.853 2.841 2.037l-3.804 3.804c-1.184-0.401-2.037-1.521-2.037-2.841 0-1.657 1.343-3 3-3zM3.441 16c1.197-1.891 2.79-3.498 4.67-4.697 0.122-0.078 0.246-0.154 0.371-0.228-0.311 0.854-0.482 1.776-0.482 2.737 0 1.715 0.54 3.304 1.459 4.607l-1.904 1.904c-1.639-1.151-3.038-2.621-4.114-4.323z"></path>
<path d="M24 13.813c0-0.849-0.133-1.667-0.378-2.434l-10.056 10.056c0.768 0.245 1.586 0.378 2.435 0.378 4.418 0 8-3.582 8-8z"></path>
<path d="M25.938 9.062l-2.168 2.168c0.040 0.025 0.079 0.049 0.118 0.074 1.88 1.199 3.473 2.805 4.67 4.697-1.197 1.891-2.79 3.498-4.67 4.697-2.362 1.507-5.090 2.303-7.889 2.303-1.208 0-2.403-0.149-3.561-0.439l-2.403 2.403c1.866 0.671 3.873 1.036 5.964 1.036 6.978 0 13.027-4.064 16-10-1.407-2.81-3.504-5.2-6.062-6.938z"></path>
</symbol>
<symbol id="icon-github" viewBox="0 0 32 32">
<path d="M16 0.395c-8.836 0-16 7.163-16 16 0 7.069 4.585 13.067 10.942 15.182 0.8 0.148 1.094-0.347 1.094-0.77 0-0.381-0.015-1.642-0.022-2.979-4.452 0.968-5.391-1.888-5.391-1.888-0.728-1.849-1.776-2.341-1.776-2.341-1.452-0.993 0.11-0.973 0.11-0.973 1.606 0.113 2.452 1.649 2.452 1.649 1.427 2.446 3.743 1.739 4.656 1.33 0.143-1.034 0.558-1.74 1.016-2.14-3.554-0.404-7.29-1.777-7.29-7.907 0-1.747 0.625-3.174 1.649-4.295-0.166-0.403-0.714-2.030 0.155-4.234 0 0 1.344-0.43 4.401 1.64 1.276-0.355 2.645-0.532 4.005-0.539 1.359 0.006 2.729 0.184 4.008 0.539 3.054-2.070 4.395-1.64 4.395-1.64 0.871 2.204 0.323 3.831 0.157 4.234 1.026 1.12 1.647 2.548 1.647 4.295 0 6.145-3.743 7.498-7.306 7.895 0.574 0.497 1.085 1.47 1.085 2.963 0 2.141-0.019 3.864-0.019 4.391 0 0.426 0.288 0.925 1.099 0.768 6.354-2.118 10.933-8.113 10.933-15.18 0-8.837-7.164-16-16-16z"></path>
</symbol>
<symbol id="icon-linkedin" viewBox="0 0 32 32">
<path d="M29 0h-26c-1.65 0-3 1.35-3 3v26c0 1.65 1.35 3 3 3h26c1.65 0 3-1.35 3-3v-26c0-1.65-1.35-3-3-3zM12 26h-4v-14h4v14zM10 10c-1.106 0-2-0.894-2-2s0.894-2 2-2c1.106 0 2 0.894 2 2s-0.894 2-2 2zM26 26h-4v-8c0-1.106-0.894-2-2-2s-2 0.894-2 2v8h-4v-14h4v2.481c0.825-1.131 2.087-2.481 3.5-2.481 2.488 0 4.5 2.238 4.5 5v9z"></path>
</symbol>
</defs>
</svg>
